<svg width="666" height="123" viewBox="0 0 666 123" fill="none" xmlns="http://www.w3.org/2000/svg">
<mask id="mask0_1_573" style="mask-type:luminance" maskUnits="userSpaceOnUse" x="0" y="0" width="666" height="123">
<path d="M665.489 0H0.510986V122.92H665.489V0Z" fill="white"/>
</mask>
<g mask="url(#mask0_1_573)">
<path d="M660.618 0.0297778C660.618 0.0297778 659.604 -0.0372222 657.759 0.0297778H8.23799C6.39399 -0.0372222 5.37899 0.0297778 5.37899 0.0297778H0.510986C31.162 0.0297778 73.811 4.85478 106.437 79.7888C117.129 104.347 139.752 122.92 168.089 122.92H497.911C526.249 122.92 548.871 104.347 559.561 79.7888C592.182 4.85478 634.837 0.0297778 665.489 0.0297778H660.618Z" fill="white"/>
</g>
<mask id="mask1_1_573" style="mask-type:luminance" maskUnits="userSpaceOnUse" x="235" y="33" width="196" height="57">
<path d="M430.272 33.437H235V89.484H430.272V33.437Z" fill="white"/>
</mask>
<g mask="url(#mask1_1_573)">
<path d="M270.371 64.458C269.22 64.4583 268.117 64.9155 267.303 65.7292C266.489 66.5429 266.032 67.6464 266.032 68.797V69.629C266.032 72.5932 264.854 75.436 262.758 77.532C260.662 79.628 257.82 80.8055 254.855 80.8055C251.891 80.8055 249.049 79.628 246.953 77.532C244.857 75.436 243.679 72.5932 243.679 69.629V54.673C243.662 53.5336 243.197 52.4466 242.385 51.6469C241.573 50.8472 240.479 50.3989 239.339 50.3989C238.2 50.3989 237.106 50.8472 236.294 51.6469C235.482 52.4466 235.017 53.5336 235 54.673V69.629C235 74.8949 237.092 79.9451 240.815 83.6687C244.539 87.3922 249.589 89.484 254.855 89.484C260.121 89.484 265.171 87.3922 268.895 83.6687C272.618 79.9451 274.71 74.8949 274.71 69.629V68.796C274.71 67.6454 274.253 66.5419 273.439 65.7282C272.625 64.9145 271.522 64.4583 270.371 64.458Z" fill="#60269E"/>
<path d="M270.37 33.437H256.235C255.084 33.437 253.98 33.8942 253.167 34.708C252.353 35.5218 251.896 36.6256 251.896 37.7765C251.896 38.9274 252.353 40.0312 253.167 40.845C253.98 41.6588 255.084 42.116 256.235 42.116H266.035V51.916C266.035 53.0669 266.492 54.1707 267.306 54.9845C268.12 55.7983 269.224 56.2555 270.374 56.2555C271.525 56.2555 272.629 55.7983 273.443 54.9845C274.257 54.1707 274.714 53.0669 274.714 51.916V37.776C274.714 37.2058 274.601 36.6412 274.383 36.1146C274.165 35.5879 273.844 35.1094 273.441 34.7064C273.038 34.3034 272.559 33.9839 272.032 33.7661C271.505 33.5483 270.94 33.4365 270.37 33.437Z" fill="#60269E"/>
<path d="M243.674 37.7769C243.674 36.9195 243.42 36.0814 242.943 35.3685C242.467 34.6556 241.79 34.1 240.998 33.7719C240.206 33.4438 239.334 33.3579 238.493 33.5252C237.652 33.6925 236.88 34.1053 236.274 34.7116C235.667 35.3178 235.255 36.0903 235.087 36.9312C234.92 37.7721 235.006 38.6437 235.334 39.4358C235.662 40.2279 236.218 40.905 236.931 41.3813C237.643 41.8577 238.482 42.1119 239.339 42.1119C239.908 42.1119 240.472 41.9998 240.998 41.7819C241.524 41.5641 242.002 41.2447 242.404 40.8422C242.807 40.4397 243.126 39.9618 243.344 39.4358C243.562 38.9099 243.674 38.3462 243.674 37.7769Z" fill="#FFD500"/>
<path d="M302.45 56.5181C302.448 57.5446 302.255 58.5618 301.882 59.5181C301.493 60.5157 300.886 61.4139 300.106 62.1471C299.204 62.9752 298.144 63.6129 296.99 64.0221C295.503 64.5389 293.934 64.7838 292.36 64.7451C290.988 64.754 289.617 64.6564 288.26 64.4531C287.142 64.2859 286.037 64.0382 284.955 63.7121C284.773 63.6681 284.603 63.5859 284.455 63.4711C284.384 63.4204 284.327 63.3532 284.288 63.2753C284.249 63.1974 284.229 63.1112 284.231 63.0241V57.8941C284.231 57.7106 284.285 57.5312 284.386 57.3781C284.451 57.2941 284.541 57.2324 284.643 57.2016C284.744 57.1708 284.853 57.1723 284.954 57.2061C285.321 57.2514 285.803 57.3027 286.4 57.3601L288.344 57.5501C289.044 57.6167 289.744 57.6741 290.444 57.7221C291.144 57.7701 291.781 57.7927 292.355 57.7901C292.535 57.8128 292.718 57.7986 292.893 57.7484C293.068 57.6982 293.23 57.613 293.371 57.4981C293.551 57.2811 293.643 57.0046 293.629 56.7231C293.629 56.5388 293.561 56.3609 293.439 56.2231C293.21 55.9962 292.949 55.8044 292.664 55.6541L287.501 52.6541C286.756 52.2342 286.072 51.7129 285.47 51.1051C284.968 50.5908 284.545 50.0051 284.214 49.3671C283.907 48.77 283.687 48.1322 283.56 47.4731C283.433 46.8093 283.369 46.1349 283.37 45.4591C283.366 44.5465 283.511 43.6394 283.801 42.7741C284.092 41.9177 284.603 41.1524 285.281 40.5541C286.109 39.8526 287.077 39.3361 288.121 39.0391C289.579 38.6265 291.091 38.4374 292.606 38.4781C293.339 38.4781 294.12 38.5071 294.947 38.5651C295.774 38.6231 296.572 38.6974 297.34 38.7881C298.109 38.8807 298.809 38.9841 299.44 39.0981C299.956 39.1866 300.467 39.3014 300.971 39.4421C301.148 39.4847 301.313 39.5671 301.454 39.6831C301.521 39.7368 301.574 39.8052 301.61 39.8829C301.646 39.9606 301.663 40.0455 301.661 40.1311V45.2601C301.666 45.4456 301.625 45.6294 301.541 45.7951C301.46 45.9451 301.271 45.9967 300.972 45.9501C300.513 45.9041 299.939 45.8524 299.251 45.7951C298.563 45.7377 297.834 45.6801 297.065 45.6221C296.296 45.5661 295.521 45.5204 294.741 45.4851C293.961 45.4497 293.249 45.4324 292.606 45.4331C292.502 45.4185 292.396 45.4263 292.295 45.4559C292.194 45.4856 292.101 45.5364 292.021 45.6051C291.933 45.7114 291.884 45.8449 291.883 45.9831C291.885 46.0679 291.905 46.1513 291.94 46.2284C291.976 46.3054 292.027 46.3744 292.09 46.4311C292.419 46.6903 292.777 46.9098 293.157 47.0851L298.045 49.6671C299.412 50.322 300.577 51.3327 301.419 52.5931C302.124 53.779 302.482 55.1388 302.452 56.5181" fill="#60269E"/>
<path d="M321.18 63.7989C321.001 63.925 320.804 64.0234 320.595 64.0909C319.96 64.2955 319.31 64.451 318.651 64.5559C317.803 64.6901 316.945 64.7537 316.086 64.7459C312.345 64.7459 309.568 63.7363 307.755 61.7169C305.942 59.6976 305.034 56.7939 305.031 53.0059V50.2169C305.031 46.4076 305.938 43.4986 307.751 41.4899C309.564 39.4813 312.341 38.4773 316.08 38.4779C316.956 38.472 317.831 38.5355 318.697 38.6679C319.342 38.7605 319.976 38.9162 320.59 39.1329C320.798 39.201 320.996 39.2997 321.175 39.4259C321.229 39.4898 321.269 39.564 321.292 39.644C321.316 39.724 321.323 39.8081 321.313 39.8909V45.3289C321.313 45.8116 321.083 46.0183 320.624 45.9489C320.257 45.9036 319.717 45.8403 319.006 45.7589C318.286 45.6785 317.562 45.6385 316.837 45.6389C316.345 45.6351 315.854 45.6871 315.374 45.7939C314.938 45.8911 314.542 46.1193 314.239 46.4479C313.893 46.8495 313.645 47.3266 313.516 47.8409C313.323 48.6176 313.236 49.4169 313.258 50.2169V53.0059C313.235 53.834 313.322 54.6616 313.516 55.4669C313.638 55.9831 313.893 56.4581 314.257 56.8439C314.57 57.1489 314.965 57.3573 315.393 57.4439C315.88 57.5409 316.376 57.5871 316.873 57.5819C317.465 57.5831 318.057 57.5544 318.646 57.4959C319.208 57.4379 319.868 57.3633 320.625 57.2719C320.714 57.2433 320.807 57.2346 320.9 57.2463C320.992 57.2581 321.08 57.29 321.159 57.3399C321.22 57.4168 321.265 57.5052 321.292 57.5998C321.319 57.6944 321.326 57.7934 321.314 57.8909V63.3299C321.324 63.4128 321.317 63.4968 321.294 63.5769C321.27 63.6569 321.23 63.7311 321.176 63.7949" fill="#60269E"/>
<path d="M345.276 53.1059C345.331 54.9891 345.021 56.8652 344.364 58.6309C343.837 59.9927 343.007 61.2169 341.937 62.2109C340.934 63.1145 339.739 63.7794 338.443 64.1559C335.756 64.9361 332.902 64.9361 330.215 64.1559C328.919 63.7795 327.725 63.1146 326.722 62.2109C325.651 61.2176 324.821 59.9932 324.294 58.6309C323.638 56.865 323.33 54.9889 323.386 53.1059V50.1059C323.331 48.2227 323.64 46.3465 324.298 44.5809C324.825 43.2212 325.653 41.9988 326.721 41.0059C327.724 40.1031 328.918 39.4386 330.214 39.0619C332.901 38.2808 335.755 38.2808 338.442 39.0619C339.739 39.4385 340.933 40.103 341.937 41.0059C343.006 42.0006 343.836 43.225 344.364 44.5869C345.021 46.3526 345.331 48.2287 345.276 50.1119V53.1059ZM337.048 50.1059C337.143 48.9112 336.923 47.7124 336.411 46.6289C336.161 46.3173 335.844 46.0658 335.483 45.893C335.123 45.7202 334.728 45.6305 334.329 45.6305C333.929 45.6305 333.534 45.7202 333.174 45.893C332.813 46.0658 332.496 46.3173 332.246 46.6289C331.734 47.7124 331.514 48.9112 331.609 50.1059V53.1059C331.514 54.3007 331.734 55.4995 332.246 56.5829C332.496 56.8944 332.813 57.1457 333.174 57.3184C333.534 57.4911 333.929 57.5808 334.329 57.5808C334.728 57.5808 335.123 57.4911 335.483 57.3184C335.844 57.1457 336.161 56.8944 336.411 56.5829C336.923 55.4994 337.143 54.3007 337.048 53.1059V50.1059Z" fill="#60269E"/>
<path d="M363.486 64.127C363.346 64.2428 363.181 64.3252 363.004 64.368C362.315 64.482 361.5 64.5736 360.56 64.643C359.62 64.7123 358.702 64.7456 357.805 64.743C356.71 64.7415 355.617 64.6553 354.535 64.485C353.474 64.328 352.459 63.9465 351.557 63.366C350.636 62.7508 349.889 61.9091 349.388 60.922C348.769 59.5991 348.48 58.1459 348.546 56.687V39.512C348.546 39.4202 348.566 39.3296 348.605 39.2464C348.644 39.1632 348.7 39.0894 348.77 39.03C348.903 38.8981 349.083 38.8241 349.27 38.824H355.984C356.166 38.8271 356.339 38.9005 356.467 39.0289C356.595 39.1573 356.669 39.3305 356.672 39.512V56.69C356.634 57.0031 356.721 57.3185 356.914 57.568C357.176 57.747 357.493 57.8264 357.809 57.792H363.009C363.19 57.7965 363.363 57.8706 363.491 57.9988C363.619 58.1271 363.693 58.2997 363.698 58.481V63.681C363.7 63.7666 363.683 63.8516 363.647 63.9293C363.611 64.007 363.558 64.0754 363.491 64.129" fill="#60269E"/>
<path d="M380.836 64.4061C380.748 64.4077 380.661 64.3899 380.581 64.3542C380.501 64.3184 380.429 64.2655 380.372 64.1991C380.246 64.0635 380.156 63.8974 380.113 63.7171L379.493 59.8621H374.261L373.642 63.7171C373.598 63.8971 373.51 64.063 373.384 64.1991C373.326 64.2653 373.255 64.3181 373.174 64.3538C373.094 64.3896 373.007 64.4074 372.919 64.4061H365.758C365.669 64.4174 365.579 64.4041 365.497 64.3676C365.415 64.3311 365.344 64.2728 365.293 64.1991C365.252 64.1264 365.227 64.0462 365.218 63.9634C365.209 63.8805 365.217 63.7967 365.242 63.7171L369.342 42.9241C369.465 42.1463 369.759 41.4055 370.203 40.7551C370.615 40.1827 371.158 39.7168 371.787 39.3961C372.491 39.0434 373.246 38.8051 374.025 38.6901C375.92 38.4145 377.844 38.4145 379.739 38.6901C380.513 38.8033 381.263 39.0417 381.96 39.3961C382.581 39.7202 383.118 40.1857 383.526 40.7551C383.974 41.4075 384.28 42.1463 384.426 42.9241L388.526 63.7171C388.55 63.7969 388.558 63.8806 388.549 63.9634C388.54 64.0462 388.514 64.1263 388.474 64.1991C388.423 64.2727 388.353 64.3308 388.271 64.3673C388.189 64.4038 388.099 64.4172 388.01 64.4061H380.836ZM377.187 45.5351C377.171 45.4235 377.142 45.3141 377.101 45.2091C377.081 45.1681 377.049 45.1345 377.008 45.1129C376.968 45.0914 376.922 45.083 376.877 45.0891C376.832 45.083 376.786 45.0913 376.746 45.1128C376.706 45.1344 376.674 45.1681 376.654 45.2091C376.612 45.314 376.583 45.4234 376.567 45.5351L375.293 53.5231H378.461L377.187 45.5351Z" fill="#60269E"/>
<path d="M409.668 63.5761C409.483 63.6835 409.28 63.7536 409.068 63.7821C408.011 64.0121 406.783 64.2301 405.384 64.4361C403.879 64.6501 402.361 64.7537 400.841 64.7461C400.058 64.7426 399.275 64.6851 398.5 64.5741C397.662 64.4562 396.841 64.2366 396.056 63.9201C395.231 63.5874 394.45 63.1534 393.732 62.6281C392.948 62.0495 392.277 61.332 391.752 60.5111C391.137 59.5448 390.678 58.4875 390.393 57.3781C390.037 55.9731 389.869 54.5272 389.893 53.0781V50.1491C389.807 48.0656 390.19 45.9894 391.012 44.0731C391.601 42.7566 392.495 41.5997 393.621 40.6985C394.747 39.7974 396.072 39.1781 397.485 38.8921C398.701 38.6282 399.941 38.4898 401.185 38.4791C402.782 38.4583 404.377 38.5791 405.953 38.8401C407.004 39.0191 408.044 39.2548 409.069 39.5461C409.293 39.5999 409.504 39.6993 409.688 39.8381C409.771 39.978 409.806 40.1413 409.788 40.3031V45.3641C409.804 45.5479 409.77 45.7326 409.688 45.8981C409.62 45.9981 409.458 46.0301 409.206 45.9841C408.954 45.9614 408.593 45.9281 408.122 45.8841C407.651 45.8401 407.135 45.8001 406.573 45.7641C406.01 45.7301 405.424 45.7014 404.817 45.6781C404.21 45.6548 403.643 45.6431 403.117 45.6431C402.327 45.6314 401.538 45.6889 400.758 45.8151C400.197 45.8989 399.669 46.1305 399.227 46.4861C398.816 46.852 398.523 47.331 398.383 47.8631C398.192 48.6105 398.105 49.3809 398.125 50.1521V53.1521C398.098 54.0385 398.19 54.9246 398.401 55.7861C398.522 56.2967 398.758 56.7732 399.089 57.1801C399.321 57.4536 399.638 57.6413 399.989 57.7131C400.273 57.7677 400.561 57.7968 400.85 57.8001C401.01 57.8001 401.199 57.7941 401.418 57.7821C401.61 57.7749 401.8 57.746 401.985 57.6961V51.4961C401.99 51.3149 402.064 51.1424 402.192 51.0142C402.32 50.886 402.493 50.8119 402.674 50.8071H409.112C409.293 50.8119 409.465 50.8861 409.594 51.0143C409.722 51.1425 409.795 51.315 409.8 51.4961V63.0251C409.8 63.3251 409.76 63.5071 409.68 63.5761" fill="#60269E"/>
<path d="M430.066 64.143C429.933 64.267 429.764 64.3457 429.584 64.368C428.873 64.4594 427.92 64.545 426.727 64.625C425.534 64.705 424.179 64.745 422.664 64.745C421.569 64.744 420.476 64.6581 419.394 64.488C418.333 64.3308 417.318 63.949 416.416 63.368C415.495 62.7534 414.748 61.912 414.247 60.925C413.627 59.6024 413.338 58.1492 413.403 56.69V46.534C413.338 45.0752 413.627 43.6223 414.247 42.3C414.749 41.3127 415.495 40.4708 416.416 39.855C417.318 39.2747 418.333 38.8936 419.394 38.737C420.476 38.5663 421.569 38.4797 422.664 38.478C424.179 38.478 425.533 38.518 426.727 38.598C427.921 38.678 428.873 38.7644 429.584 38.857C429.764 38.8793 429.933 38.9577 430.066 39.081C430.132 39.1388 430.185 39.2104 430.221 39.2907C430.257 39.371 430.274 39.4581 430.273 39.546V44.746C430.268 44.9272 430.194 45.0997 430.066 45.2279C429.938 45.3561 429.765 45.4302 429.584 45.435H422.664C422.347 45.3997 422.028 45.4788 421.764 45.658C421.572 45.9074 421.485 46.2224 421.523 46.535V48.394H429.579C429.76 48.3988 429.933 48.473 430.061 48.6011C430.189 48.7293 430.263 48.9018 430.268 49.083V53.936C430.264 54.1174 430.19 54.2902 430.061 54.4184C429.933 54.5467 429.76 54.6207 429.579 54.625H421.523V56.69C421.485 57.0033 421.571 57.3191 421.764 57.569C422.028 57.7486 422.347 57.8277 422.664 57.792H429.584C429.765 57.7968 429.938 57.871 430.066 57.9991C430.194 58.1273 430.268 58.2998 430.273 58.481V63.681C430.275 63.769 430.257 63.8562 430.221 63.9366C430.185 64.0169 430.132 64.0884 430.066 64.146" fill="#60269E"/>
<path d="M321.457 84.0749C321.457 84.2649 321.357 84.3589 321.157 84.3589H318.677C318.635 84.3606 318.592 84.3537 318.553 84.3385C318.513 84.3234 318.477 84.3004 318.446 84.2709C318.384 84.2071 318.341 84.1275 318.322 84.0409L317.684 81.1349H314.052L313.414 84.0409C313.395 84.1275 313.352 84.2071 313.29 84.2709C313.26 84.3003 313.224 84.3233 313.184 84.3384C313.144 84.3535 313.102 84.3605 313.06 84.3589H310.58C310.38 84.3589 310.28 84.2649 310.28 84.0749C310.28 84.0627 310.283 84.0507 310.289 84.0399C310.296 84.0231 310.299 84.005 310.298 83.9869L312.938 73.0009C313.019 72.6303 313.176 72.2803 313.398 71.9729C313.584 71.7253 313.823 71.5224 314.098 71.3789C314.368 71.2421 314.658 71.1496 314.958 71.1049C315.263 71.0576 315.571 71.0338 315.879 71.0339C316.185 71.0336 316.49 71.0574 316.792 71.1049C317.088 71.1506 317.375 71.2431 317.642 71.3789C317.917 71.5224 318.156 71.7253 318.342 71.9729C318.564 72.2804 318.721 72.6303 318.803 73.0009L321.443 83.9869C321.442 84.0051 321.445 84.0232 321.452 84.0399C321.458 84.0507 321.461 84.0627 321.461 84.0749M316.11 73.8149C316.094 73.7457 316.07 73.6786 316.039 73.6149C316.015 73.5736 315.962 73.5529 315.879 73.5529C315.749 73.5529 315.667 73.6409 315.632 73.8179L314.551 78.7079H317.191L316.11 73.8149Z" fill="#60269E"/>
<path d="M339.212 80.5491C339.237 81.2236 339.084 81.8928 338.768 82.4891C338.481 82.994 338.068 83.4153 337.568 83.7111C337.021 84.0287 336.42 84.242 335.795 84.3401C335.078 84.4614 334.352 84.5206 333.625 84.5171C333.33 84.5171 333.03 84.5115 332.725 84.5001C332.418 84.4881 332.119 84.4741 331.83 84.4551C331.541 84.4361 331.271 84.4171 331.022 84.3931C330.808 84.3745 330.595 84.3451 330.384 84.3051C330.106 84.2797 329.843 84.1682 329.631 83.9861C329.457 83.7454 329.378 83.4486 329.41 83.1531V72.3801C329.379 72.0859 329.455 71.7904 329.623 71.5471C329.824 71.3655 330.079 71.2537 330.349 71.2281C330.502 71.2041 330.7 71.1811 330.943 71.1571C331.186 71.1331 331.45 71.1131 331.743 71.0951C332.036 71.0771 332.33 71.0621 332.638 71.0511C332.946 71.0401 333.238 71.0331 333.524 71.0331C334.29 71.027 335.055 71.0893 335.81 71.2191C336.429 71.3201 337.025 71.5271 337.573 71.8311C338.048 72.1002 338.443 72.4918 338.716 72.9651C339.004 73.5101 339.145 74.121 339.123 74.7371V75.0561C339.131 75.6011 338.997 76.1388 338.734 76.6161C338.482 77.0687 338.099 77.4336 337.634 77.6621C338.121 77.9017 338.53 78.2768 338.809 78.7423C339.089 79.2079 339.229 79.7442 339.212 80.2871V80.5491ZM336.199 74.9321C336.213 74.7213 336.17 74.5106 336.075 74.3219C335.981 74.1332 335.837 73.9734 335.659 73.8591C335.065 73.5801 334.408 73.4608 333.754 73.5131H333.072C332.936 73.5131 332.807 73.5131 332.682 73.5221C332.557 73.5311 332.467 73.5311 332.408 73.5311V76.5971H334.392C334.689 76.6054 334.985 76.5665 335.269 76.4821C335.471 76.4212 335.658 76.3191 335.819 76.1821C335.952 76.0615 336.053 75.9091 336.111 75.7391C336.171 75.5651 336.201 75.3822 336.2 75.1981L336.199 74.9321ZM336.271 80.2871C336.277 79.88 336.132 79.485 335.863 79.1791C335.665 79.0013 335.431 78.8674 335.178 78.7864C334.924 78.7054 334.656 78.679 334.392 78.7091H332.408V82.0231H332.717C332.853 82.0231 332.995 82.0231 333.143 82.0321C333.291 82.0411 333.432 82.0411 333.569 82.0411H333.861C334.517 82.1031 335.177 81.961 335.749 81.6341C335.922 81.4977 336.059 81.3219 336.15 81.1215C336.241 80.9211 336.282 80.7019 336.271 80.4821V80.2871Z" fill="#60269E"/>
<path d="M350.57 79.7519C350.57 80.0359 350.446 80.1779 350.198 80.1779H344.546V80.2129C344.545 80.4557 344.575 80.6976 344.634 80.9329C344.688 81.1571 344.79 81.3667 344.934 81.5469C345.085 81.7294 345.276 81.8736 345.493 81.9679C345.771 82.0827 346.07 82.1366 346.37 82.1259C346.654 82.1259 346.954 82.1199 347.27 82.1079L348.218 82.0729C348.531 82.0609 348.823 82.0459 349.095 82.0279C349.367 82.0109 349.595 81.9899 349.769 81.9659H349.822C350.047 81.9659 350.158 82.0659 350.158 82.2499V83.6069C350.165 83.7185 350.141 83.8298 350.087 83.9279C350.01 84.0159 349.903 84.0728 349.787 84.0879C349.238 84.2274 348.682 84.3346 348.121 84.4089C347.468 84.4865 346.811 84.5222 346.154 84.5159C345.612 84.5151 345.074 84.4377 344.554 84.2859C344.028 84.1352 343.539 83.8756 343.119 83.5239C342.672 83.1406 342.32 82.6586 342.091 82.1159C341.812 81.4333 341.68 80.6999 341.701 79.9629V78.7239C341.692 78.0677 341.794 77.4146 342.001 76.7919C342.183 76.2441 342.482 75.7424 342.878 75.3219C343.274 74.9129 343.754 74.5955 344.286 74.3919C344.893 74.1637 345.538 74.0525 346.186 74.0639C346.838 74.051 347.487 74.1715 348.091 74.4179C348.615 74.6363 349.085 74.9691 349.464 75.3919C349.842 75.8196 350.127 76.3217 350.3 76.8659C350.488 77.4678 350.58 78.0954 350.574 78.7259L350.57 79.7519ZM347.77 78.3339C347.811 77.8054 347.66 77.2798 347.344 76.8539C347.198 76.6908 347.017 76.5623 346.815 76.4781C346.612 76.3938 346.394 76.3558 346.175 76.3669C345.953 76.3577 345.731 76.3978 345.526 76.4842C345.32 76.5706 345.137 76.7013 344.988 76.8669C344.664 77.2856 344.506 77.8091 344.545 78.3369V78.4079H347.77V78.3339Z" fill="#60269E"/>
<path d="M358.58 84.378C358.308 84.424 358.072 84.46 357.871 84.483C357.641 84.5076 357.411 84.5193 357.18 84.518C356.751 84.5227 356.323 84.4841 355.902 84.403C355.559 84.3386 355.239 84.182 354.978 83.95C354.712 83.695 354.517 83.3746 354.414 83.021C354.271 82.5229 354.206 82.0059 354.22 81.488V76.35L352.803 76.12C352.708 76.0961 352.62 76.0506 352.546 75.987C352.51 75.9586 352.481 75.9223 352.461 75.8809C352.441 75.8394 352.431 75.794 352.431 75.748V74.578C352.436 74.481 352.477 74.3894 352.546 74.3208C352.614 74.2521 352.706 74.2112 352.803 74.206H354.22V72.752C354.219 72.7081 354.228 72.6645 354.246 72.6246C354.265 72.5848 354.292 72.5496 354.326 72.522C354.398 72.462 354.482 72.4195 354.573 72.398L356.721 72.026H356.774C356.858 72.0222 356.94 72.0508 357.003 72.106C357.033 72.1343 357.056 72.1689 357.072 72.2072C357.087 72.2456 357.093 72.2868 357.091 72.328V74.206H358.544C358.59 74.2058 358.636 74.2152 358.679 74.2336C358.722 74.252 358.76 74.279 358.792 74.313C358.826 74.3452 358.853 74.384 358.871 74.427C358.889 74.47 358.898 74.5163 358.898 74.563V76.01C358.898 76.0567 358.889 76.1029 358.871 76.1459C358.853 76.1889 358.826 76.2277 358.792 76.26C358.76 76.2939 358.722 76.3209 358.679 76.3393C358.636 76.3577 358.59 76.3671 358.544 76.367H357.091V81.524C357.071 81.755 357.101 81.9875 357.179 82.206C357.238 82.3066 357.405 82.357 357.679 82.357H358.547C358.795 82.357 358.92 82.457 358.92 82.657V84.028C358.92 84.228 358.807 84.344 358.583 84.379" fill="#60269E"/>
<path d="M366.924 84.378C366.652 84.424 366.416 84.46 366.215 84.483C365.986 84.5076 365.755 84.5193 365.524 84.518C365.095 84.5227 364.667 84.4841 364.246 84.403C363.903 84.3386 363.583 84.182 363.322 83.95C363.056 83.695 362.861 83.3746 362.758 83.021C362.615 82.5229 362.55 82.0059 362.564 81.488V76.35L361.147 76.12C361.052 76.0961 360.964 76.0506 360.89 75.987C360.854 75.9586 360.825 75.9223 360.805 75.8809C360.785 75.8394 360.775 75.794 360.775 75.748V74.578C360.78 74.481 360.821 74.3894 360.89 74.3208C360.958 74.2521 361.05 74.2112 361.147 74.206H362.564V72.752C362.563 72.7081 362.572 72.6645 362.59 72.6246C362.609 72.5848 362.636 72.5496 362.67 72.522C362.742 72.462 362.826 72.4195 362.917 72.398L365.065 72.026H365.118C365.202 72.0222 365.284 72.0508 365.347 72.106C365.377 72.1343 365.4 72.1689 365.416 72.2072C365.431 72.2456 365.437 72.2868 365.435 72.328V74.206H366.888C366.934 74.2058 366.98 74.2152 367.023 74.2336C367.066 74.252 367.104 74.279 367.136 74.313C367.17 74.3452 367.197 74.384 367.215 74.427C367.233 74.47 367.242 74.5163 367.242 74.563V76.01C367.242 76.0567 367.233 76.1029 367.215 76.1459C367.197 76.1889 367.17 76.2277 367.136 76.26C367.104 76.2939 367.066 76.3209 367.023 76.3393C366.98 76.3577 366.934 76.3671 366.888 76.367H365.436V81.524C365.416 81.755 365.446 81.9875 365.524 82.206C365.583 82.3066 365.75 82.357 366.024 82.357H366.892C367.14 82.357 367.265 82.457 367.265 82.657V84.028C367.265 84.228 367.152 84.344 366.928 84.379" fill="#60269E"/>
<path d="M378.372 79.752C378.372 80.036 378.248 80.178 378 80.178H372.347V80.213C372.346 80.4558 372.376 80.6977 372.435 80.933C372.489 81.1572 372.591 81.3668 372.735 81.547C372.886 81.7295 373.077 81.8737 373.294 81.968C373.572 82.0828 373.871 82.1367 374.171 82.126C374.455 82.126 374.755 82.12 375.071 82.108L376.019 82.073C376.332 82.061 376.624 82.046 376.896 82.028C377.168 82.011 377.396 81.99 377.57 81.966H377.623C377.848 81.966 377.959 82.066 377.959 82.25V83.607C377.966 83.7186 377.942 83.8299 377.888 83.928C377.811 84.016 377.704 84.0729 377.588 84.088C377.039 84.2275 376.483 84.3347 375.922 84.409C375.269 84.4866 374.612 84.5223 373.955 84.516C373.413 84.5153 372.875 84.4378 372.355 84.286C371.829 84.1352 371.34 83.8756 370.92 83.524C370.473 83.1407 370.121 82.6587 369.892 82.116C369.613 81.4334 369.481 80.7 369.502 79.963V78.724C369.493 78.0678 369.595 77.4147 369.802 76.792C369.984 76.2442 370.283 75.7425 370.679 75.322C371.075 74.913 371.555 74.5956 372.087 74.392C372.697 74.1633 373.345 74.0526 373.997 74.066C374.649 74.0531 375.298 74.1736 375.902 74.42C376.426 74.6384 376.896 74.9712 377.275 75.394C377.648 75.8223 377.928 76.3236 378.097 76.866C378.285 77.4679 378.377 78.0955 378.371 78.726L378.372 79.752ZM375.572 78.334C375.613 77.8055 375.462 77.2799 375.146 76.854C375 76.6909 374.819 76.5624 374.617 76.4782C374.414 76.3939 374.196 76.3559 373.977 76.367C373.755 76.3578 373.533 76.3979 373.328 76.4843C373.122 76.5707 372.939 76.7014 372.79 76.867C372.466 77.2857 372.308 77.8092 372.347 78.337V78.408H375.572V78.334Z" fill="#60269E"/>
<path d="M386.611 76.3479C386.59 76.3821 386.561 76.4102 386.526 76.4292C386.491 76.4482 386.451 76.4574 386.411 76.4559H386.269C385.855 76.4528 385.443 76.5121 385.047 76.6319C384.68 76.7459 384.324 76.8942 383.984 77.0749V83.9879C383.983 84.0841 383.945 84.1763 383.878 84.2449C383.847 84.2808 383.809 84.3096 383.766 84.3294C383.723 84.3493 383.676 84.3597 383.629 84.3599H381.49C381.393 84.3534 381.303 84.3121 381.234 84.2437C381.166 84.1753 381.125 84.0844 381.118 83.9879V74.5599C381.12 74.4666 381.158 74.3776 381.224 74.3115C381.29 74.2454 381.379 74.2072 381.472 74.2049H383.581C383.628 74.2048 383.674 74.2143 383.716 74.2329C383.759 74.2515 383.797 74.2787 383.829 74.3129C383.863 74.3451 383.89 74.384 383.908 74.4269C383.926 74.4699 383.935 74.5162 383.935 74.5629V74.9209C384.27 74.6449 384.651 74.4302 385.06 74.2869C385.466 74.141 385.895 74.0662 386.327 74.0659C386.373 74.0658 386.419 74.0752 386.462 74.0937C386.505 74.1121 386.543 74.139 386.575 74.1729C386.609 74.2053 386.635 74.2441 386.654 74.2871C386.672 74.33 386.681 74.3762 386.681 74.4229V76.1159C386.681 76.1986 386.657 76.2795 386.611 76.3479Z" fill="#60269E"/>
<path d="M408.902 71.459L407.254 83.065C407.246 83.2681 407.197 83.4674 407.108 83.6504C407.02 83.8333 406.894 83.996 406.74 84.128C406.406 84.3341 406.016 84.4332 405.624 84.412H404.614C404.256 84.4205 403.903 84.3283 403.595 84.146C403.276 83.9254 403.056 83.5881 402.984 83.207L401.584 77.907C401.574 77.8613 401.552 77.8187 401.522 77.783C401.491 77.7679 401.456 77.7616 401.422 77.765C401.391 77.7609 401.36 77.7673 401.334 77.783C401.31 77.8213 401.292 77.8631 401.281 77.907L399.881 83.207C399.809 83.5881 399.589 83.9254 399.27 84.146C398.962 84.3282 398.609 84.4204 398.251 84.412H397.243C396.851 84.4332 396.461 84.3341 396.127 84.128C395.972 83.9961 395.847 83.8335 395.758 83.6505C395.67 83.4675 395.62 83.2681 395.613 83.065L393.965 71.459V71.423C393.96 71.3866 393.965 71.3495 393.981 71.3163C393.997 71.2831 394.022 71.2552 394.053 71.236C394.115 71.2056 394.184 71.1905 394.253 71.192H396.663C396.828 71.192 396.922 71.305 396.947 71.528L397.957 81.028C397.968 81.182 398.004 81.258 398.063 81.258C398.122 81.258 398.151 81.182 398.187 81.028L399.462 76.155C399.487 76.0176 399.539 75.8866 399.615 75.7695C399.691 75.6525 399.79 75.5517 399.905 75.473C400.105 75.3608 400.331 75.3029 400.561 75.305H402.315C402.545 75.303 402.771 75.3609 402.971 75.473C403.086 75.5518 403.185 75.6526 403.261 75.7697C403.337 75.8867 403.389 76.0177 403.414 76.155L404.689 81.028C404.725 81.182 404.766 81.258 404.813 81.258C404.86 81.258 404.908 81.182 404.919 81.028L405.929 71.528C405.953 71.304 406.047 71.192 406.213 71.192H408.623C408.692 71.1906 408.761 71.2057 408.823 71.236C408.854 71.2552 408.879 71.2831 408.895 71.3163C408.911 71.3495 408.916 71.3866 408.911 71.423L408.902 71.459Z" fill="#60269E"/>
<path d="M418.63 84.0041C418.628 84.0973 418.59 84.186 418.524 84.2519C418.458 84.3178 418.369 84.3558 418.276 84.3581H416.291C416.198 84.3556 416.109 84.3175 416.043 84.2516C415.978 84.1858 415.94 84.0972 415.937 84.0041V83.7201C415.602 83.9638 415.235 84.1603 414.847 84.3041C414.405 84.4554 413.941 84.5275 413.474 84.5171C413.094 84.5182 412.715 84.4674 412.349 84.3661C411.995 84.2703 411.666 84.0998 411.384 83.8661C411.086 83.6109 410.852 83.2892 410.701 82.9271C410.516 82.4656 410.429 81.9709 410.444 81.4741V81.3141C410.409 80.8778 410.485 80.4397 410.667 80.0412C410.848 79.6428 411.128 79.2972 411.48 79.0371C412.494 78.4802 413.649 78.2307 414.803 78.3191H415.76V77.6811C415.76 77.1731 415.642 76.8424 415.406 76.6891C415.11 76.5204 414.771 76.4406 414.431 76.4591C414.148 76.4591 413.862 76.4621 413.572 76.4681C413.282 76.4741 413.004 76.4828 412.739 76.4941C412.473 76.5061 412.234 76.5201 412.021 76.5391L411.489 76.5821H411.402C411.319 76.586 411.238 76.5609 411.172 76.5111C411.139 76.4793 411.114 76.4404 411.099 76.3974C411.083 76.3544 411.078 76.3085 411.083 76.2631V74.8251C411.081 74.73 411.115 74.6376 411.177 74.5656C411.239 74.4936 411.326 74.4471 411.42 74.4351C411.753 74.3531 412.199 74.2704 412.758 74.1871C413.33 74.105 413.907 74.0646 414.484 74.0661C415.066 74.0579 415.647 74.1252 416.212 74.2661C416.686 74.3826 417.129 74.5999 417.512 74.9031C417.874 75.2026 418.157 75.5861 418.336 76.0201C418.544 76.5468 418.643 77.1101 418.628 77.6761L418.63 84.0041ZM415.812 80.0171H414.802C414.545 80.0117 414.289 80.0386 414.039 80.0971C413.863 80.1376 413.699 80.2195 413.561 80.3361C413.441 80.4452 413.355 80.5865 413.313 80.7431C413.263 80.9279 413.24 81.1187 413.242 81.3101V81.4701C413.242 81.8481 413.334 82.0901 413.517 82.1961C413.779 82.3192 414.069 82.3742 414.358 82.3561C414.619 82.3578 414.879 82.319 415.129 82.2411C415.363 82.168 415.591 82.0763 415.811 81.9671L415.812 80.0171Z" fill="#60269E"/>
<path d="M430.272 74.5251C430.272 74.5491 430.272 74.5631 430.263 74.5691C430.255 74.5825 430.252 74.5979 430.254 74.6131L427.277 85.0501C427.154 85.4854 426.994 85.9093 426.799 86.3171C426.635 86.6627 426.399 86.9694 426.108 87.2171C425.79 87.471 425.421 87.655 425.027 87.7571C424.495 87.8926 423.946 87.9551 423.397 87.9431C423.232 87.9431 423.049 87.9344 422.848 87.9171C422.648 87.8991 422.448 87.8791 422.248 87.8551C422.048 87.8311 421.858 87.8021 421.681 87.7671C421.537 87.74 421.395 87.7043 421.255 87.6601C421.167 87.6275 421.081 87.5891 420.998 87.5451C420.962 87.5262 420.932 87.4974 420.911 87.4619C420.891 87.4265 420.881 87.3859 420.883 87.3451V85.9011C420.882 85.856 420.891 85.8112 420.91 85.7699C420.928 85.7286 420.955 85.6918 420.989 85.6621C421.055 85.5975 421.144 85.5616 421.237 85.5621H421.273C421.415 85.5731 421.583 85.5861 421.773 85.5971C421.963 85.6081 422.173 85.6241 422.373 85.6421C422.573 85.6601 422.781 85.6741 422.973 85.6861C423.165 85.6981 423.336 85.7031 423.473 85.7031C423.74 85.7224 424.007 85.6543 424.232 85.5091C424.447 85.3179 424.595 85.0638 424.657 84.7831L424.817 84.2331H424.551C424.393 84.2342 424.236 84.2194 424.081 84.1891C423.923 84.1558 423.775 84.0875 423.647 83.9891C423.482 83.8554 423.346 83.6894 423.247 83.5011C423.095 83.2123 422.979 82.906 422.901 82.5891L420.561 74.6091C420.549 74.5692 420.543 74.5277 420.544 74.4861C420.544 74.2971 420.662 74.2021 420.898 74.2021H423.254C423.296 74.2002 423.338 74.2083 423.377 74.2257C423.415 74.243 423.449 74.2692 423.476 74.3021C423.531 74.3726 423.571 74.4541 423.592 74.5411L425.186 81.2031C425.233 81.4281 425.304 81.5391 425.398 81.5391H425.558L427.206 74.5391C427.228 74.4488 427.274 74.3661 427.339 74.3001C427.37 74.2679 427.407 74.2425 427.448 74.2253C427.489 74.2081 427.533 74.1995 427.578 74.2001H429.932C430.02 74.1974 430.106 74.2289 430.172 74.2881C430.204 74.317 430.23 74.3525 430.247 74.3922C430.264 74.4319 430.273 74.4748 430.272 74.5181" fill="#60269E"/>
<path d="M302.45 80.8689H285.382C285.033 80.8594 284.702 80.7142 284.459 80.4642C284.216 80.2142 284.08 79.8792 284.08 79.5304C284.08 79.1816 284.216 78.8466 284.459 78.5966C284.702 78.3466 285.033 78.2014 285.382 78.1919H302.45C302.629 78.187 302.807 78.218 302.974 78.2831C303.14 78.3482 303.292 78.446 303.42 78.5707C303.549 78.6955 303.651 78.8447 303.72 79.0096C303.79 79.1744 303.826 79.3515 303.826 79.5304C303.826 79.7093 303.79 79.8864 303.72 80.0513C303.651 80.2161 303.549 80.3653 303.42 80.4901C303.292 80.6148 303.14 80.7127 302.974 80.7777C302.807 80.8428 302.629 80.8738 302.45 80.8689Z" fill="#60269E"/>
</g>
</svg>
